<?xml version="1.0" encoding="utf-8"?>
<!-- Generator: Adobe Illustrator 24.3.0, SVG Export Plug-In . SVG Version: 6.00 Build 0)  -->
<svg version="1.1" id="Calque_1" xmlns="http://www.w3.org/2000/svg" xmlns:xlink="http://www.w3.org/1999/xlink" x="0px" y="0px"
	 viewBox="0 0 283.46 291.66" style="enable-background:new 0 0 283.46 291.66;" xml:space="preserve">
<style type="text/css">
	.st0{fill:#1D63AD;}
	.st1{fill:#E6292E;}
</style>
<g>
	<path class="st0" d="M5.88,49.19c0.26-0.14,0.25-0.4,0.29-0.64c0.21-1.45,0.7-2.8,1.48-4.03c1.73-2.73,4.17-4.34,7.3-4.85
		c0.47-0.08,0.96-0.09,1.43-0.09c4.51-0.01,9.01-0.04,13.52,0.01c3.94,0.04,6.93,1.87,8.96,5.3c0.93,1.56,1.37,3.29,1.38,5.12
		c0,0.25,0,0.49,0,0.74c0,58.35,0,116.69,0,175.04c0,1.23-0.09,2.45-0.44,3.64c-1.21,4.08-4.66,6.91-8.4,7.42
		c-0.52,0.07-1.05,0.12-1.57,0.12c-4.46,0.01-8.92-0.01-13.38,0.01c-4.97,0.03-9.22-3.61-10.19-8.4c-0.05-0.24-0.08-0.48-0.12-0.72
		c-0.03-0.23-0.1-0.43-0.27-0.58C5.88,167.9,5.88,108.55,5.88,49.19z"/>
	<g>
		<path class="st0" d="M166.58,160.51c-0.54-1.2-1.44-1.95-2.71-2.19c-2.14-0.42-4.04,0.1-5.67,1.59c-0.65,0.59-1.17,1.29-1.64,2.04
			c-0.63,1.02-1.12,2.11-1.54,3.24c-0.82,2.21-1.39,4.49-1.87,6.79c-0.86,4.1-1.71,8.2-2.56,12.31c-0.72,3.5-1.44,7.01-2.12,10.52
			c-0.33,1.71-0.55,3.44-0.57,5.19c0.02,0.56,0.03,1.13,0.07,1.69c0.06,0.84,0.24,1.65,0.58,2.42c0.5,1.13,1.32,1.91,2.48,2.29
			c1.1,0.36,2.22,0.39,3.34,0.16c1.38-0.28,2.44-1.09,3.32-2.18c0.63-0.78,1.12-1.65,1.53-2.57c0.61-1.36,1.09-2.78,1.42-4.24
			c0.55-2.44,1.07-4.88,1.58-7.33c1.09-5.18,2.17-10.36,3.24-15.54c0.51-2.45,1.08-4.88,1.45-7.36c0.22-1.51,0.32-3.02,0.21-4.55
			C167.07,162,166.91,161.24,166.58,160.51z"/>
		<path class="st0" d="M257.42,160.94c-0.45-1.39-1.38-2.28-2.77-2.62c-0.49-0.12-0.99-0.2-1.49-0.22
			c-2.01-0.07-3.78,0.53-5.22,2.01c-0.49,0.51-0.92,1.07-1.29,1.67c-0.45,0.73-0.82,1.5-1.15,2.29c-0.69,1.7-1.2,3.47-1.58,5.27
			c-0.74,3.5-1.45,7.01-2.16,10.51c-0.99,4.82-1.97,9.65-2.95,14.48c-0.33,1.63-0.6,3.28-0.73,4.94c-0.07,0.98-0.03,1.96,0.12,2.94
			c0.09,0.63,0.26,1.25,0.53,1.83c0.54,1.18,1.42,1.96,2.64,2.33c0.86,0.26,1.74,0.34,2.63,0.25c1.63-0.15,2.98-0.87,4.04-2.15
			c0.55-0.66,0.99-1.38,1.37-2.15c0.47-0.94,0.84-1.93,1.16-2.93c0.61-1.87,1.01-3.78,1.41-5.7c1.71-8.13,3.42-16.25,5.12-24.38
			c0.37-1.75,0.68-3.51,0.71-5.32c-0.02-0.49-0.01-0.98-0.07-1.47C257.67,161.98,257.58,161.45,257.42,160.94z"/>
		<path class="st0" d="M277.44,157.26c-0.02-0.27-0.01-0.54-0.05-0.81c-0.3-1.99-0.76-3.95-1.54-5.8
			c-2.83-6.65-7.8-10.37-14.79-11.32c-0.52-0.07-1.04-0.12-1.59-0.19c0.02-0.2,0.01-0.37,0.04-0.53c0.82-3.88,1.64-7.77,2.45-11.65
			c0.68-3.21,1.36-6.42,2.03-9.63c0.04-0.18,0.04-0.38,0.06-0.56c-0.32-0.13-0.61-0.08-0.9-0.08c-9.11,0-18.22,0-27.32,0
			c-0.14,0-0.29-0.01-0.43,0c-0.16,0.01-0.32,0.04-0.48,0.06c-0.06,0.23-0.12,0.41-0.16,0.6c-0.73,3.53-1.46,7.05-2.19,10.58
			c-0.81,3.93-1.63,7.87-2.45,11.8c-0.03,0.14-0.1,0.27-0.16,0.44c-0.32,0-0.63,0.01-0.94,0.01c-14.4,0-28.81,0-43.21,0
			c-0.24,0-0.48-0.01-0.72,0c-0.16,0.01-0.32,0.04-0.5,0.07c-0.21,1.01-0.41,1.99-0.62,2.97c-0.22,1-0.38,2-0.65,3.01
			c-0.28-0.06-0.37-0.28-0.5-0.44c-1.25-1.57-2.73-2.89-4.43-3.94c-2.51-1.55-5.25-2.38-8.15-2.62c-2.74-0.22-5.46-0.03-8.12,0.73
			c-0.54,0.15-1.07,0.22-1.63,0.22c-6.69-0.01-13.37,0-20.06,0c-0.22,0-0.43-0.01-0.65,0c-0.16,0.01-0.32,0.04-0.48,0.07
			c-0.03,0.13-0.06,0.22-0.07,0.31c-0.39,2.2-0.76,4.4-1.18,6.58c-0.94,4.93-1.88,9.87-2.88,14.79c-1.19,5.88-2.45,11.75-3.67,17.62
			c-1.46,7.03-2.91,14.05-4.37,21.08c-1.37,6.57-2.74,13.14-4.11,19.71c-1.68,8.06-3.35,16.11-5.03,24.17
			c-0.13,0.62-0.22,1.25-0.33,1.88c9.73,0,19.47,0,29.2,0c0.01-0.12-0.01-0.25,0.02-0.36c0.92-4.46,1.84-8.92,2.76-13.38
			c0.46-2.21,0.91-4.41,1.37-6.62c0.06-0.29,0.12-0.57,0.2-0.91c0.16,0,0.32-0.02,0.48-0.01c3.6,0.41,7.13,0.12,10.58-1.02
			c4.25-1.41,7.72-3.97,10.52-7.51c0.32-0.4,0.61-0.82,0.92-1.23c0.09-0.11,0.18-0.22,0.31-0.38c0.11,0.17,0.22,0.3,0.29,0.44
			c0.49,1.01,1.07,1.98,1.74,2.87c2.39,3.2,5.51,5.26,9.29,6.3c1.75,0.48,3.53,0.69,5.33,0.7c1.94,0.01,3.88-0.13,5.79-0.55
			c0.35-0.08,0.7-0.15,1.05-0.26c0.53-0.16,1.07-0.22,1.63-0.22c12.94,0.01,25.88,0.01,38.83,0c0.56,0,1.09,0.06,1.63,0.22
			c1.55,0.44,3.14,0.65,4.75,0.71c2.48,0.08,4.93-0.15,7.33-0.81c4.59-1.27,8.36-3.84,11.39-7.57c1.85-2.28,3.29-4.82,4.46-7.52
			c1.29-2.97,2.27-6.04,3.01-9.19c0.62-2.62,1.17-5.26,1.72-7.89c0.95-4.53,1.89-9.06,2.82-13.6c0.62-3.02,1.25-6.05,1.84-9.07
			c0.28-1.42,0.51-2.85,0.55-4.3c0.01-0.24,0.09-0.47,0.14-0.71c0-2.21,0-4.42,0-6.63C277.42,157.71,277.45,157.48,277.44,157.26z
			 M178.23,164.82c-0.24,2.5-0.76,4.94-1.27,7.39c-0.94,4.51-1.87,9.02-2.81,13.53c-0.76,3.65-1.51,7.3-2.31,10.93
			c-0.64,2.87-1.46,5.69-2.57,8.42c-0.6,1.47-1.29,2.9-2.12,4.26c-0.89,1.44-1.92,2.76-3.18,3.87c-1.98,1.75-4.27,2.78-6.85,3.14
			c-1.62,0.23-3.25,0.24-4.87,0c-0.81-0.12-1.6-0.33-2.35-0.65c-1.95-0.81-3.38-2.2-4.31-4.13c-0.11-0.24-0.23-0.47-0.39-0.79
			c-0.33,0.68-0.35,1.35-0.5,1.97c-0.15,0.62-0.27,1.25-0.39,1.87c-0.13,0.65-0.26,1.3-0.39,1.95c-0.13,0.62-0.25,1.25-0.38,1.87
			c-0.13,0.65-0.27,1.29-0.41,1.94c-0.13,0.62-0.26,1.25-0.39,1.87c-0.13,0.65-0.26,1.3-0.39,1.95c-0.13,0.65-0.27,1.3-0.4,1.94
			c-0.13,0.62-0.26,1.25-0.39,1.87c-0.14,0.65-0.27,1.3-0.4,1.94c-0.13,0.62-0.25,1.25-0.38,1.87c-0.13,0.65-0.27,1.3-0.4,1.94
			c-0.13,0.62-0.26,1.25-0.39,1.87c-0.13,0.64-0.24,1.29-0.43,1.93c-0.76,0.12-1.47,0.05-2.19,0.06c-0.72,0.01-1.44,0-2.16,0
			c-0.7,0-1.39,0-2.09,0c-0.72,0-1.44,0-2.16,0c-0.71-0.01-1.43,0.03-2.11-0.03c-0.17-0.26-0.08-0.48-0.04-0.69
			c0.58-2.78,1.16-5.57,1.74-8.35c1.03-4.97,2.07-9.93,3.1-14.9c1.18-5.66,2.36-11.32,3.53-16.98c1.03-4.94,2.05-9.88,3.08-14.83
			c1.13-5.45,2.29-10.89,3.4-16.34c1.01-4.99,1.97-10,2.95-15c0.05-0.24,0.11-0.47,0.18-0.74c0.2-0.02,0.39-0.06,0.57-0.06
			c3.6-0.09,9.27-0.04,9.95,0.09c0.12,0.27,0.05,0.56,0.01,0.84c-0.1,0.73-0.21,1.46-0.33,2.18c-0.1,0.63-0.23,1.25-0.34,1.88
			c-0.03,0.19-0.06,0.38-0.09,0.57c0.27,0,0.29-0.21,0.39-0.33c0.53-0.67,1.01-1.37,1.58-2c2.54-2.82,5.71-4.22,9.45-4.26
			c1.3-0.01,2.58,0.09,3.84,0.48c2.16,0.68,3.81,2.03,4.92,4.04c0.8,1.45,1.23,3.03,1.47,4.67
			C178.51,160.21,178.46,162.51,178.23,164.82z M220.9,174.82c-0.93,4.49-1.87,8.97-2.8,13.46c-1.5,7.27-3.01,14.54-4.49,21.82
			c-0.34,1.66-0.6,3.33-0.9,4.99c-0.02,0.1-0.04,0.19-0.07,0.33c-0.15,0.03-0.31,0.09-0.46,0.1c-0.26,0.02-0.53,0.01-0.79,0.01
			c-2.83,0-5.66,0-8.48,0c-0.28,0-0.57,0.04-0.89-0.08c0.02-0.94,0.21-1.84,0.34-2.76c0.12-0.89,0.31-1.76,0.43-2.69
			c-0.31,0.09-0.38,0.32-0.5,0.49c-0.67,0.96-1.39,1.87-2.21,2.71c-1.8,1.83-3.96,2.89-6.48,3.2c-1.31,0.16-2.63,0.19-3.95,0.12
			c-1.23-0.07-2.42-0.36-3.54-0.89c-1.77-0.84-3.04-2.19-3.87-3.99c-0.71-1.53-1.04-3.16-1.14-4.84c-0.16-2.49,0.03-4.96,0.5-7.4
			c0.59-3.06,1.24-6.1,1.86-9.15c1.03-4.97,2.06-9.93,3.09-14.9c0.98-4.75,1.96-9.5,2.95-14.25c0.74-3.57,1.48-7.15,2.23-10.72
			c0.04-0.19,0.1-0.37,0.15-0.54c0.14-0.03,0.23-0.06,0.32-0.06c3.4,0,6.81,0,10.21,0c0.07,0,0.13,0.04,0.22,0.06
			c0.1,0.22,0.02,0.43-0.02,0.64c-0.92,4.41-1.84,8.83-2.77,13.24c-1.03,4.94-2.06,9.88-3.09,14.82
			c-1.08,5.16-2.16,10.31-3.22,15.47c-0.36,1.73-0.7,3.46-1.01,5.2c-0.17,0.97-0.27,1.95-0.2,2.93c0.04,0.61,0.12,1.22,0.26,1.81
			c0.4,1.61,1.47,2.5,3.05,2.7c2.49,0.32,4.59-0.45,6.23-2.43c0.75-0.91,1.33-1.92,1.83-2.98c0.89-1.91,1.52-3.92,1.99-5.98
			c0.57-2.48,1.07-4.98,1.59-7.48c1.09-5.25,2.17-10.51,3.25-15.77c1.03-4.99,2.06-9.98,3.08-14.98c0.44-2.16,0.89-4.32,1.33-6.48
			c0.05-0.24,0.12-0.47,0.18-0.71c0.12-0.03,0.21-0.08,0.3-0.08c3.45,0,6.9,0,10.35,0c0.09,0,0.18,0.04,0.3,0.08
			c-0.02,0.18-0.03,0.35-0.07,0.51c-0.76,3.67-1.52,7.34-2.29,11.01C222.77,165.84,221.83,170.33,220.9,174.82z M268.57,165.02
			c-0.27,2.74-0.88,5.42-1.44,8.1c-0.98,4.73-1.95,9.45-2.94,14.18c-0.71,3.41-1.41,6.81-2.17,10.21c-0.63,2.82-1.47,5.59-2.61,8.25
			c-0.64,1.51-1.39,2.96-2.31,4.32c-0.88,1.3-1.89,2.47-3.1,3.46c-2.05,1.67-4.39,2.57-6.98,2.84c-1.17,0.12-2.34,0.14-3.51,0
			c-0.91-0.11-1.8-0.3-2.65-0.64c-2.23-0.87-3.76-2.47-4.69-4.7c-0.11-0.27-0.2-0.55-0.31-0.82c-0.03-0.08-0.1-0.15-0.23-0.35
			c-0.44,1.97-0.82,3.79-1.42,5.58c-0.2,0.02-0.39,0.06-0.58,0.06c-3.12,0-6.23,0-9.35,0c-0.16,0-0.32-0.03-0.52-0.05
			c0.02-0.23,0.02-0.42,0.06-0.61c0.84-4.18,1.68-8.36,2.53-12.54c0.88-4.3,1.78-8.59,2.67-12.88c0.94-4.53,1.88-9.07,2.82-13.6
			c1.23-5.9,2.45-11.8,3.68-17.7c1.08-5.18,2.15-10.36,3.22-15.54c0.99-4.75,1.97-9.5,2.96-14.25c0.11-0.55,0.23-1.1,0.35-1.65
			c0.03-0.12,0.07-0.23,0.12-0.38c0.17-0.02,0.33-0.05,0.5-0.05c3.24,0,6.47,0,9.71,0c0.18,0,0.37,0.03,0.61,0.06
			c-0.06,0.83-0.3,1.58-0.44,2.34c-0.15,0.77-0.32,1.54-0.48,2.3c-0.16,0.77-0.33,1.53-0.49,2.3c-0.16,0.77-0.32,1.54-0.48,2.3
			c-0.16,0.77-0.32,1.53-0.49,2.3c-0.16,0.77-0.33,1.53-0.49,2.3c-0.16,0.74-0.31,1.49-0.46,2.23c-0.16,0.77-0.33,1.53-0.49,2.3
			c-0.16,0.77-0.33,1.53-0.49,2.3c-0.16,0.77-0.32,1.54-0.48,2.3c-0.16,0.77-0.34,1.53-0.49,2.3c-0.15,0.76-0.36,1.52-0.46,2.4
			c0.18-0.15,0.29-0.22,0.38-0.32c0.47-0.49,0.91-1.01,1.41-1.47c2.5-2.35,5.47-3.45,8.84-3.48c1.32-0.01,2.63,0.09,3.91,0.47
			c2.43,0.72,4.23,2.23,5.41,4.52c0.68,1.32,1.07,2.73,1.3,4.19C268.87,160.27,268.81,162.64,268.57,165.02z"/>
	</g>
	<path class="st0" d="M24.44,0c0.2,0.18,0.45,0.14,0.69,0.17c4.55,0.59,8.35,2.6,11.32,6.2c1.85,2.24,3.04,4.82,3.47,7.73
		c0.65,4.3-0.27,8.25-2.74,11.79c-2.44,3.49-5.75,5.74-9.82,6.72c-5.43,1.3-10.43,0.26-14.88-3.2c-2.98-2.32-4.99-5.36-5.84-9.11
		c-1.17-5.11-0.08-9.75,3.12-13.82c2.53-3.22,5.84-5.17,9.78-6.02c0.61-0.13,1.23-0.2,1.84-0.3c0.16-0.03,0.31-0.1,0.47-0.14
		C22.71,0,23.57,0,24.44,0z"/>
	<path class="st0" d="M104.34,43.39c14.48,0,28.95,0,43.43,0.01c0.6,0,1.2,0.03,1.79,0.14c1.21,0.24,2.23,0.88,3.1,1.75
		c1.23,1.23,2.04,2.72,2.5,4.41c0.95,3.53,0.61,6.89-1.33,10.03c-1.05,1.7-2.09,3.41-3.13,5.11c-0.43,0.71-0.93,1.37-1.53,1.94
		c-0.95,0.9-2.05,1.52-3.34,1.75c-0.24,0.04-0.47,0.06-0.71,0.08c-0.24,0.01-0.48,0.01-0.72,0.01c-27.87,0-55.75,0-83.62,0
		c-0.45,0-0.91-0.01-1.36-0.08c-1.32-0.21-2.44-0.85-3.4-1.78c-0.94-0.9-1.63-1.99-2.14-3.2c-0.58-1.39-0.9-2.85-0.92-4.36
		c-0.03-2.13-0.04-4.27,0-6.41c0.04-2.1,0.58-4.07,1.69-5.86c0.56-0.9,1.24-1.68,2.08-2.31c1.08-0.8,2.28-1.24,3.62-1.25
		c0.26,0,0.53,0,0.79,0C75.53,43.39,89.93,43.39,104.34,43.39z"/>
	<path class="st0" d="M84.45,127.87c7.91,0,15.82,0,23.73,0c0.63,0,1.25,0.05,1.85,0.21c1.12,0.29,2.07,0.88,2.9,1.7
		c0.96,0.95,1.67,2.08,2.15,3.36c1.25,3.35,1.2,6.67-0.32,9.92c-0.14,0.31-0.31,0.61-0.49,0.9c-1.12,1.83-2.24,3.66-3.36,5.49
		c-0.42,0.69-0.91,1.32-1.5,1.87c-1.28,1.19-2.76,1.81-4.5,1.81c-14.79-0.01-29.58-0.01-44.37,0c-1.69,0-3.14-0.58-4.39-1.71
		c-1.12-1.01-1.9-2.27-2.44-3.68c-0.49-1.29-0.78-2.63-0.78-4.02c-0.01-2.16-0.03-4.32,0-6.48c0.03-1.92,0.52-3.73,1.45-5.41
		c0.42-0.75,0.92-1.43,1.53-2.03c1.31-1.28,2.84-1.94,4.67-1.94C68.53,127.88,76.49,127.87,84.45,127.87z"/>
	<path class="st0" d="M64.23,212.38c1.49,0,2.97-0.03,4.46,0.01c1.77,0.04,3.32,0.7,4.64,1.89c2.78,2.51,3.08,6.63,0.88,9.49
		c-1.6,2.08-3.2,4.16-4.81,6.24c-1.16,1.5-2.31,3.01-3.47,4.51c-1.05,1.36-2.38,2.28-4.03,2.65c-2.73,0.61-5.14-0.06-7.16-2.03
		c-1.25-1.22-1.89-2.75-1.96-4.53c-0.01-0.22-0.01-0.44-0.01-0.66c0-3.39,0-6.77,0-10.16c0-0.74,0.03-1.47,0.26-2.18
		c0.86-2.74,2.71-4.37,5.41-5.06c0.59-0.15,1.18-0.17,1.78-0.17C61.54,212.37,62.88,212.37,64.23,212.38
		C64.23,212.37,64.23,212.38,64.23,212.38z"/>
	<g>
		<path class="st1" d="M195.14,271.55c0-1.19-0.95-2.14-2.09-2.14h-1.37v4.28h1.37C194.19,273.69,195.14,272.71,195.14,271.55z"/>
		<path class="st1" d="M124.38,269.98h-1.19v10.91h1.19c3.04,0,5.13-2.41,5.13-5.47C129.5,272.36,127.44,269.98,124.38,269.98z"/>
		<path class="st1" d="M282.89,256.74H0.57C0.26,256.74,0,257,0,257.31v33.77c0,0.31,0.26,0.57,0.57,0.57h282.33
			c0.31,0,0.57-0.26,0.57-0.57v-33.77C283.46,257,283.21,256.74,282.89,256.74z M270.6,259.47h3.38l-3.54,4.85h-2.96L270.6,259.47z
			 M23.13,284.62l-1.29-3.71h-6.84l-1.29,3.71H9.44l7.29-18.41h3.36l7.29,18.41H23.13z M46.05,275.42c0,5.22-4.1,9.47-9.22,9.47
			c-5.07,0-9.25-4.28-9.25-9.47s4.18-9.47,9.25-9.47c3.96,0,7.53,2.65,8.77,6.47h-4.36c-0.87-1.95-2.67-2.68-4.41-2.68
			c-2.85,0-5.23,2.62-5.23,5.74s2.38,5.74,5.23,5.74c1.74,0,3.96-0.57,4.94-3.36H37.2v-3.06h8.85V275.42z M58.98,269.9h-6.45v3.65
			h6.18v3.68h-6.18v3.71h6.45v3.68H48.56v-18.41h10.41V269.9z M76.26,284.62H72.3l-6.18-11.48v11.48h-3.96v-18.41h3.96l6.18,11.48
			v-11.48h3.96V284.62z M88.03,284.89c-5.1,0-9.25-4.25-9.25-9.47c0-5.22,4.15-9.47,9.25-9.47c4.1,0,7.56,2.71,8.77,6.47h-4.41
			c-0.74-1.65-2.54-2.68-4.36-2.68c-2.91,0-5.23,2.57-5.23,5.68c0,3.14,2.33,5.68,5.23,5.68c1.85,0,3.65-1.11,4.39-2.73h4.41
			C95.61,282.16,92.12,284.89,88.03,284.89z M109.49,269.9h-6.45v3.65h6.18v3.68h-6.18v3.71h6.45v3.68H99.08v-18.41h10.41V269.9z
			 M124.61,284.62h-5.34v-18.41h5.34c5.07,0,8.93,4.01,8.93,9.2S129.71,284.62,124.61,284.62z M146.47,269.9h-6.45v3.65h6.18v3.68
			h-6.18v3.71h6.45v3.68h-10.41v-18.41h10.41V269.9z M162.99,278.04h-2.78v6.58h-3.96v-18.41h2.99h0.98h2.78
			c2.91,0,5.5,2.41,5.5,5.9C168.49,275.85,165.9,278.04,162.99,278.04z M184.93,277.45c0,4.9-2.75,7.44-7.43,7.44
			c-4.68,0-7.43-2.54-7.43-7.44v-11.23h3.96v10.64c0,2.54,0.77,3.98,3.46,3.98c2.72,0,3.46-1.43,3.46-3.98v-10.64h3.96V277.45z
			 M194.98,284.62h-7.27v-18.41h6.18c3.07,0,5.02,2.08,5.02,4.6c0,1.87-0.79,3.28-2.14,3.9c2.01,0.49,3.65,2.14,3.65,4.63
			C200.42,282.51,198.41,284.62,194.98,284.62z M212.69,284.62h-10.41v-18.41h3.96v14.73h6.45V284.62z M219.17,284.62h-3.96v-18.41
			h3.96V284.62z M230.93,284.89c-5.1,0-9.25-4.25-9.25-9.47c0-5.22,4.15-9.47,9.25-9.47c4.1,0,7.56,2.71,8.77,6.47h-4.41
			c-0.74-1.65-2.54-2.68-4.36-2.68c-2.91,0-5.23,2.57-5.23,5.68c0,3.14,2.33,5.68,5.23,5.68c1.85,0,3.65-1.11,4.39-2.73h4.41
			C238.51,282.16,235.02,284.89,230.93,284.89z M245.94,284.62h-3.96v-18.41h3.96V284.62z M261.88,269.9h-5.13v14.73h-3.96V269.9
			h-5.13v-3.68h14.22V269.9z M274.01,269.9h-6.45v3.65h6.18v3.68h-6.18v3.71h6.45v3.68H263.6v-18.41h10.41V269.9z"/>
		<path class="st1" d="M162.33,269.41h-2.11v5.44h2.11c1.16,0,2.38-0.97,2.38-2.73C164.71,270.44,163.5,269.41,162.33,269.41z"/>
		<path class="st1" d="M194.19,277.01h-2.51v4.44h2.51c1.19,0,2.19-1,2.19-2.22C196.38,278.04,195.38,277.01,194.19,277.01z"/>
		<polygon class="st1" points="16.13,277.58 20.67,277.58 18.4,271.03 		"/>
	</g>
</g>
</svg>
