<svg width="79" height="76" viewBox="0 0 79 76" fill="none" xmlns="http://www.w3.org/2000/svg">
<g clip-path="url(#clip0_90_683)">
<path d="M24.8976 59.6938C23.2854 59.6938 21.7095 60.1725 20.369 61.0692C19.0285 61.9659 17.9838 63.2404 17.3668 64.7316C16.7499 66.2227 16.5884 67.8635 16.903 69.4465C17.2175 71.0295 17.9938 72.4836 19.1338 73.6249C20.2738 74.7662 21.7262 75.5434 23.3074 75.8583C24.8886 76.1732 26.5275 76.0116 28.017 75.3939C29.5064 74.7763 30.7795 73.7303 31.6751 72.3883C32.5708 71.0463 33.0489 69.4685 33.0489 67.8545C33.0489 65.6902 32.1901 63.6145 30.6614 62.0841C29.1328 60.5537 27.0595 59.6938 24.8976 59.6938ZM24.8976 72.3751C24.003 72.3751 23.1286 72.1095 22.3848 71.612C21.641 71.1144 21.0612 70.4072 20.7189 69.5798C20.3766 68.7524 20.287 67.8419 20.4615 66.9635C20.636 66.0851 21.0668 65.2783 21.6994 64.645C22.3319 64.0117 23.1378 63.5804 24.0152 63.4057C24.8926 63.231 25.802 63.3207 26.6285 63.6634C27.455 64.0061 28.1613 64.5865 28.6583 65.3312C29.1553 66.0758 29.4206 66.9513 29.4206 67.8469C29.4186 69.0465 28.9412 70.1964 28.0932 71.0439C27.2452 71.8915 26.0959 72.3675 24.8976 72.3675V72.3751Z" fill="#112E41"/>
<path d="M59.2807 59.6938C57.6685 59.6938 56.0925 60.1725 54.752 61.0692C53.4115 61.9659 52.3668 63.2404 51.7499 64.7316C51.1329 66.2227 50.9715 67.8635 51.286 69.4465C51.6005 71.0295 52.3769 72.4836 53.5169 73.6249C54.6568 74.7662 56.1092 75.5434 57.6904 75.8583C59.2716 76.1732 60.9106 76.0116 62.4 75.3939C63.8895 74.7763 65.1625 73.7303 66.0582 72.3883C66.9539 71.0463 67.4319 69.4685 67.4319 67.8545C67.4319 66.7828 67.221 65.7217 66.8114 64.7316C66.4018 63.7415 65.8014 62.8419 65.0445 62.0841C64.2876 61.3263 63.389 60.7252 62.4 60.3151C61.4111 59.905 60.3511 59.6938 59.2807 59.6938ZM59.2807 72.3751C58.3861 72.3751 57.5116 72.1095 56.7678 71.612C56.024 71.1144 55.4443 70.4072 55.102 69.5798C54.7596 68.7524 54.67 67.8419 54.8445 66.9635C55.019 66.0851 55.4498 65.2783 56.0824 64.645C56.715 64.0117 57.5209 63.5804 58.3983 63.4057C59.2756 63.231 60.1851 63.3207 61.0115 63.6634C61.838 64.0061 62.5444 64.5865 63.0414 65.3312C63.5384 66.0758 63.8036 66.9513 63.8036 67.8469C63.8016 69.0465 63.3242 70.1964 62.4762 71.0439C61.6282 71.8915 60.4789 72.3675 59.2807 72.3675V72.3751Z" fill="#112E41"/>
<path d="M77.6476 12.1384C77.2707 11.7262 76.7549 11.468 76.1993 11.4134L17.296 10.5974L15.6677 5.61561C15.1083 3.99177 14.0613 2.58067 12.67 1.57543C11.2787 0.570192 9.61118 0.0199375 7.89555 -2.75954e-05H1.8257C1.58316 -0.00788811 1.34152 0.0331497 1.11513 0.120647C0.888749 0.208143 0.682248 0.340314 0.507902 0.509301C0.333557 0.678287 0.194926 0.880641 0.10025 1.10433C0.00557485 1.32803 -0.0432129 1.56849 -0.0432129 1.81144C-0.0432129 2.05439 0.00557485 2.29485 0.10025 2.51854C0.194926 2.74224 0.333557 2.94459 0.507902 3.11358C0.682248 3.28256 0.888749 3.41473 1.11513 3.50223C1.34152 3.58973 1.58316 3.63077 1.8257 3.62291H7.89176C8.85185 3.64498 9.78221 3.96067 10.5579 4.52756C11.3335 5.09445 11.9173 5.88539 12.2309 6.79416L23.7223 41.4882L22.818 43.5758C22.3206 44.8602 22.1351 46.2446 22.2768 47.6149C22.4185 48.9852 22.8834 50.3022 23.6332 51.4574C24.3761 52.5898 25.3809 53.526 26.5623 54.1868C27.7437 54.8475 29.0669 55.2133 30.4196 55.253H65.6046C66.0743 55.2378 66.5198 55.0403 66.8467 54.7022C67.1736 54.3642 67.3564 53.9121 67.3564 53.4416C67.3564 52.971 67.1736 52.5189 66.8467 52.1809C66.5198 51.8428 66.0743 51.6453 65.6046 51.6301H30.4158C29.6535 51.6094 28.9083 51.4 28.2467 51.0204C27.5851 50.6409 27.0277 50.1031 26.6245 49.4552C26.2238 48.8127 25.9747 48.0871 25.8962 47.3337C25.8177 46.5802 25.9118 45.8188 26.1714 45.1073L26.8956 43.4771L64.9885 39.4917C67.0303 39.2665 68.9524 38.4144 70.4912 37.0522C72.03 35.69 73.1101 33.8844 73.5833 31.8833L77.9263 13.6775C78.0214 13.4195 78.0458 13.1406 77.9968 12.8699C77.9478 12.5992 77.8272 12.3466 77.6476 12.1384ZM70.0461 31.071C69.7599 32.3572 69.0693 33.5176 68.0757 34.3818C67.0822 35.246 65.838 35.7685 64.526 35.8725L26.888 39.7668L18.4732 14.2222L73.9454 15.0364L70.0461 31.071Z" fill="#112E41"/>
</g>
<defs>
<clipPath id="clip0_90_683">
<rect width="78" height="76" fill="white" transform="translate(0.0153809)"/>
</clipPath>
</defs>
</svg>
