<svg width="92" height="70" viewBox="0 0 92 70" fill="none" xmlns="http://www.w3.org/2000/svg">
<g clip-path="url(#clip0_90_677)">
<path d="M88.4919 19.0998L52.2165 1.1864C50.386 0.404074 48.4189 0.000976562 46.4316 0.000976562C44.4443 0.000976562 42.4772 0.404074 40.6468 1.1864L3.53891 19.0998C2.69862 19.3885 1.96235 19.9236 1.4239 20.6368C0.885454 21.3501 0.569185 22.2092 0.515381 23.1048C0.515381 24.0531 0.932478 25.7398 3.53891 27.1099L6.56243 28.5849V45.4466C5.61897 45.8233 4.80781 46.4754 4.23235 47.3198C3.65688 48.1643 3.34318 49.1629 3.33122 50.1883C3.34331 51.1997 3.64514 52.1859 4.20019 53.0275C4.75524 53.869 5.5397 54.5299 6.45859 54.93L1.76667 70.0001H14.9009L10.2073 54.93C11.1417 54.5413 11.9393 53.8782 12.497 53.0264C13.0547 52.1746 13.3469 51.1733 13.3357 50.1519C13.3245 49.1304 13.0105 48.1359 12.4343 47.2967C11.8581 46.4576 11.0461 45.8125 10.1034 45.4449V30.3765L15.6278 33.1166V55.028C15.6358 55.3687 15.7449 55.6991 15.9411 55.9763C19.5703 60.4562 24.1577 64.0451 29.3578 66.4727C34.5579 68.9003 40.2351 70.1034 45.9617 69.9913C51.6734 70.1036 57.3355 68.9 62.5188 66.4718C67.7022 64.0436 72.2708 60.4544 75.8785 55.9763C76.0747 55.6991 76.1838 55.3687 76.1918 55.028V33.2215L88.4919 27.1099C89.3321 26.8211 90.0684 26.286 90.6068 25.5728C91.1453 24.8595 91.4616 24.0004 91.5154 23.1048C91.4382 22.2163 91.1131 21.3682 90.5778 20.6592C90.0426 19.9502 89.3192 19.4094 88.4919 19.0998ZM72.8585 54.5031C69.5322 58.4051 65.4002 61.5224 60.7534 63.6355C56.1066 65.7485 51.0581 66.806 45.9635 66.7334C40.8691 66.8058 35.8209 65.7482 31.1745 63.6351C26.528 61.522 22.3963 58.4048 19.0702 54.5031V34.5915L40.6468 45.025C42.4565 45.8137 44.41 46.209 46.3806 46.185C48.3982 46.2386 50.3995 45.8049 52.2182 44.92L72.8585 34.6965V54.5031ZM87.0329 24.1581L74.5251 30.3748C74.2939 30.3564 74.0624 30.4064 73.8587 30.5185C73.655 30.6306 73.4879 30.8001 73.3777 31.0064L50.7575 42.0802C47.9516 43.2394 44.8078 43.2394 42.0019 42.0802L14.1706 28.5849L46.1711 24.7915C46.3858 24.774 46.595 24.7135 46.7863 24.6135C46.9776 24.5135 47.1474 24.376 47.2856 24.209C47.4239 24.042 47.5279 23.8488 47.5916 23.6408C47.6552 23.4328 47.6773 23.214 47.6565 22.9972C47.6358 22.7805 47.5725 22.5701 47.4705 22.3783C47.3685 22.1865 47.2297 22.0171 47.0623 21.8801C46.8949 21.7431 46.7022 21.6411 46.4954 21.5801C46.2886 21.5191 46.0719 21.5003 45.8579 21.5248L8.75003 25.9498L4.99788 24.1581C4.51423 23.9933 4.1064 23.6562 3.85043 23.2098C3.85043 23.1048 4.05812 22.6849 4.99788 22.2615L42.1057 4.23961C43.4584 3.66729 44.9125 3.38031 46.3788 3.39626C47.8811 3.35912 49.3739 3.64664 50.7575 4.23961L87.0329 22.1565C87.9709 22.5781 88.1803 22.9998 88.1803 23.2063C87.8871 23.6199 87.4914 23.9482 87.0329 24.1581Z" fill="#112E41"/>
</g>
<defs>
<clipPath id="clip0_90_677">
<rect width="91" height="70" fill="white" transform="translate(0.515381)"/>
</clipPath>
</defs>
</svg>
