<svg width="66" height="66" viewBox="0 0 66 66" fill="none" xmlns="http://www.w3.org/2000/svg">
<g clip-path="url(#clip0_90_667)">
<path d="M45.2037 27.5833H20.8287C20.4696 27.5833 20.1253 27.4408 19.8712 27.187C19.6171 26.9333 19.4742 26.5891 19.4738 26.23V1.85498C19.4738 1.49561 19.6165 1.15097 19.8706 0.896863C20.1247 0.642756 20.4694 0.5 20.8287 0.5H45.2037C45.5631 0.5 45.9077 0.642756 46.1618 0.896863C46.4159 1.15097 46.5587 1.49561 46.5587 1.85498V26.23C46.5583 26.5891 46.4153 26.9333 46.1613 27.187C45.9072 27.4408 45.5628 27.5833 45.2037 27.5833ZM22.1821 24.875H43.8488V3.20833H22.1821V24.875Z" fill="#112E41"/>
<path d="M37.0787 11.3333H28.9537C28.5946 11.3333 28.2503 11.1908 27.9962 10.937C27.7421 10.6833 27.5992 10.3391 27.5988 9.97998V1.85498C27.5988 1.49561 27.7415 1.15097 27.9956 0.896863C28.2497 0.642756 28.5944 0.5 28.9537 0.5H37.0787C37.4381 0.5 37.7827 0.642756 38.0368 0.896863C38.291 1.15097 38.4337 1.49561 38.4337 1.85498V9.97998C38.4333 10.3391 38.2903 10.6833 38.0363 10.937C37.7822 11.1908 37.4378 11.3333 37.0787 11.3333ZM30.3071 8.625H35.7238V3.20833H30.3071V8.625Z" fill="#112E41"/>
<path d="M33.0153 51.9583H7.28698C6.9279 51.9583 6.5835 51.8158 6.32944 51.562C6.07538 51.3083 5.93244 50.9641 5.93201 50.605V26.23C5.93201 25.8706 6.07476 25.526 6.32887 25.2719C6.58298 25.0178 6.92762 24.875 7.28698 24.875H33.0153C33.3747 24.875 33.7193 25.0178 33.9735 25.2719C34.2276 25.526 34.3703 25.8706 34.3703 26.23V50.605C34.3699 50.9641 34.2269 51.3083 33.9729 51.562C33.7188 51.8158 33.3744 51.9583 33.0153 51.9583ZM8.64034 49.25H31.662V27.5833H8.64034V49.25Z" fill="#112E41"/>
<path d="M23.537 35.7083H15.412C15.0529 35.7083 14.7085 35.5658 14.4544 35.312C14.2004 35.0583 14.0574 34.7141 14.057 34.355V26.23C14.057 25.8706 14.1998 25.526 14.4539 25.2719C14.708 25.0178 15.0526 24.875 15.412 24.875H23.537C23.8963 24.875 24.241 25.0178 24.4951 25.2719C24.7492 25.526 24.892 25.8706 24.892 26.23V34.355C24.8915 34.7141 24.7486 35.0583 24.4945 35.312C24.2405 35.5658 23.8961 35.7083 23.537 35.7083ZM16.7653 33H22.182V27.5833H16.7653V33Z" fill="#112E41"/>
<path d="M58.7453 51.9583H33.017C32.6576 51.9583 32.313 51.8156 32.0589 51.5615C31.8047 51.3074 31.662 50.9627 31.662 50.6034V26.23C31.662 25.8706 31.8047 25.526 32.0589 25.2719C32.313 25.0178 32.6576 24.875 33.017 24.875H58.7453C59.1047 24.875 59.4493 25.0178 59.7034 25.2719C59.9575 25.526 60.1003 25.8706 60.1003 26.23V50.605C60.0999 50.9641 59.9569 51.3083 59.7029 51.562C59.4488 51.8158 59.1044 51.9583 58.7453 51.9583ZM34.3703 49.25H57.392V27.5833H34.3703V49.25Z" fill="#112E41"/>
<path d="M50.6204 35.7083H42.4954C42.1363 35.7083 41.7919 35.5658 41.5378 35.312C41.2838 35.0583 41.1408 34.7141 41.1404 34.355V26.23C41.1404 25.8706 41.2831 25.526 41.5372 25.2719C41.7914 25.0178 42.136 24.875 42.4954 24.875H50.6204C50.9797 24.875 51.3244 25.0178 51.5785 25.2719C51.8326 25.526 51.9753 25.8706 51.9753 26.23V34.355C51.9749 34.7141 51.832 35.0583 51.5779 35.312C51.3238 35.5658 50.9794 35.7083 50.6204 35.7083ZM43.8487 33H49.2654V27.5833H43.8487V33Z" fill="#112E41"/>
<path d="M64.162 65.5H53.3287C52.9693 65.5 52.6247 65.3572 52.3706 65.1031C52.1165 64.849 51.9737 64.5044 51.9737 64.145V60.0817H41.1485V64.1434C41.1485 64.5028 41.0057 64.8474 40.7516 65.1015C40.4975 65.3556 40.1529 65.4984 39.7935 65.4984H26.2454C25.886 65.4984 25.5414 65.3556 25.2872 65.1015C25.0331 64.8474 24.8904 64.5028 24.8904 64.1434V60.0801H14.057V64.1434C14.057 64.5028 13.9143 64.8474 13.6602 65.1015C13.4061 65.3556 13.0614 65.4984 12.7021 65.4984H1.87036C1.51099 65.4984 1.16635 65.3556 0.912244 65.1015C0.658137 64.8474 0.515381 64.5028 0.515381 64.1434L0.515381 50.605C0.515381 50.2456 0.658137 49.901 0.912244 49.6469C1.16635 49.3928 1.51099 49.25 1.87036 49.25H64.162C64.5214 49.25 64.866 49.3928 65.1201 49.6469C65.3742 49.901 65.517 50.2456 65.517 50.605V64.1434C65.5172 64.3215 65.4823 64.4978 65.4143 64.6624C65.3463 64.827 65.2466 64.9766 65.1207 65.1026C64.9949 65.2286 64.8454 65.3285 64.6809 65.3967C64.5164 65.4649 64.3401 65.5 64.162 65.5ZM54.682 62.7917H62.807V51.9583H3.22371V62.7917H11.3487V58.7284C11.3487 58.369 11.4915 58.0244 11.7456 57.7702C11.9997 57.5161 12.3443 57.3734 12.7037 57.3734H26.2454C26.6047 57.3734 26.9494 57.5161 27.2035 57.7702C27.4576 58.0244 27.6003 58.369 27.6003 58.7284V62.7917H38.4337V58.7284C38.4337 58.369 38.5764 58.0244 38.8305 57.7702C39.0846 57.5161 39.4293 57.3734 39.7886 57.3734H53.3303C53.6897 57.3734 54.0343 57.5161 54.2884 57.7702C54.5425 58.0244 54.6853 58.369 54.6853 58.7284L54.682 62.7917Z" fill="#112E41"/>
</g>
<defs>
<clipPath id="clip0_90_667">
<rect width="65" height="65" fill="white" transform="translate(0.515381 0.5)"/>
</clipPath>
</defs>
</svg>
