<svg width="87" height="62" viewBox="0 0 87 62" fill="none" xmlns="http://www.w3.org/2000/svg">
<g clip-path="url(#clip0_90_691)">
<path d="M10.2673 36.8542C9.91179 37.0223 9.63572 37.3235 9.49803 37.6936C9.36034 38.0637 9.37195 38.4732 9.53037 38.8348L12.9127 46.1383C13.0788 46.5007 13.3808 46.7821 13.7526 46.9211C14.1245 47.06 14.5358 47.0451 14.8968 46.8797L40.4478 34.8736L38.1354 59.2238C38.1132 59.4598 38.1464 59.6977 38.2323 59.9183C38.3183 60.139 38.4546 60.3362 38.6302 60.4941C39.7499 61.4265 41.1457 61.9584 42.5984 62.0063C42.9989 62.0043 43.3977 61.9522 43.7855 61.8512C45.859 61.3068 47.4684 59.4472 48.5645 56.2677L58.6191 26.3138L78.5323 16.9692C84.3905 14.2178 87.4152 8.63898 85.3864 4.28385C84.819 3.16305 83.9859 2.20016 82.9606 1.48032C81.9353 0.760492 80.7496 0.305894 79.5082 0.156725C76.7074 -0.266855 73.8449 0.17841 71.3021 1.43317L48.3209 12.2682L23.6132 2.54677C20.5022 1.36803 18.0371 1.3975 16.3089 2.65379C15.5933 3.24461 15.02 3.99083 14.6321 4.83643C14.2441 5.68204 14.0516 6.60507 14.0689 7.53624C14.0763 7.77245 14.1386 8.00364 14.2508 8.21129C14.363 8.41894 14.5219 8.59728 14.7149 8.73203L31.3522 20.2387L21.8234 24.7753L5.84741 20.6916C5.52873 20.6128 5.19318 20.6411 4.89199 20.7721C4.5908 20.9032 4.34052 21.1298 4.17936 21.4174L0.197321 28.6294C0.0953395 28.8185 0.0346372 29.0273 0.0192681 29.2419C0.0038991 29.4565 0.0342171 29.6719 0.108197 29.8737C0.182177 30.0756 0.298116 30.2592 0.448271 30.4124C0.598426 30.5656 0.779339 30.6848 0.978929 30.762L12.8125 35.6755L10.2673 36.8542ZM17.1491 6.78092C17.2378 6.14206 17.5606 5.55959 18.0541 5.14774C18.9112 4.52736 20.4744 4.61886 22.5633 5.40365L44.5701 14.0379L34.5295 18.756L17.1491 6.78092ZM3.62283 28.6139L6.24361 23.9424L21.6183 27.7826C21.9498 27.8668 22.2999 27.8351 22.6111 27.6926L72.5801 4.20941C74.5673 3.22333 76.8045 2.86488 78.9979 3.18112C79.7556 3.25133 80.4851 3.50531 81.1238 3.9213C81.7626 4.33729 82.2916 4.90288 82.6654 5.56961C83.9265 8.29156 81.4476 12.2682 77.2543 14.2333L59.9387 22.4007L60.9916 19.2693C61.0548 19.0777 61.0798 18.8754 61.0653 18.674C61.0507 18.4726 60.9969 18.2761 60.9068 18.0956C60.8168 17.9151 60.6923 17.7543 60.5405 17.6222C60.3886 17.4902 60.2124 17.3895 60.0219 17.326C59.8314 17.2624 59.6304 17.2372 59.4302 17.2519C59.23 17.2665 59.0346 17.3207 58.8553 17.4113C58.6759 17.5018 58.516 17.6271 58.3848 17.7798C58.2535 17.9326 58.1534 18.1099 58.0903 18.3015L45.7217 55.3325C44.9848 57.4356 44.0676 58.6903 43.047 58.9617C42.4143 59.0836 41.7592 58.9594 41.214 58.6143L44.2202 26.8613C44.258 26.4603 44.1359 26.0605 43.8808 25.75C43.6256 25.4395 43.2584 25.2437 42.8597 25.2057C42.4611 25.1676 42.0637 25.2904 41.7551 25.5471C41.4465 25.8038 41.2518 26.1733 41.214 26.5744L40.7515 31.4274L14.96 43.5249L12.8372 38.9868L17.0751 36.9907C17.3417 36.8723 17.5684 36.6785 17.7275 36.4329C17.8866 36.1873 17.9713 35.9004 17.9713 35.6072C17.9713 35.314 17.8866 35.0272 17.7275 34.7816C17.5684 34.5359 17.3417 34.3421 17.0751 34.2238L3.62283 28.6139Z" fill="#112E41"/>
</g>
<defs>
<clipPath id="clip0_90_691">
<rect width="86" height="62" fill="white" transform="translate(0.0153809)"/>
</clipPath>
</defs>
</svg>
