<svg width="103" height="104" viewBox="0 0 103 104" fill="none" xmlns="http://www.w3.org/2000/svg">
<g id="impriment">
<path id="Vector" d="M68.4103 95.977H33.8939V75.8953H29.7292V97.4846C29.7298 98.1892 30.0099 98.8647 30.5081 99.3629C31.0063 99.861 31.6818 100.141 32.3863 100.142H69.9179C70.6224 100.141 71.2979 99.861 71.7961 99.3629C72.2943 98.8647 72.5744 98.1892 72.5749 97.4846V75.8953H68.4103V95.977Z" fill="#06A7E0"/>
<path id="Vector_2" d="M39.0578 83.2582H63.246C63.7982 83.2582 64.3279 83.0388 64.7184 82.6483C65.1089 82.2578 65.3283 81.7281 65.3283 81.1759C65.3283 80.6236 65.1089 80.094 64.7184 79.7035C64.3279 79.313 63.7982 79.0936 63.246 79.0936H39.0578C38.5056 79.0936 37.9759 79.313 37.5854 79.7035C37.1949 80.094 36.9755 80.6236 36.9755 81.1759C36.9755 81.7281 37.1949 82.2578 37.5854 82.6483C37.9759 83.0388 38.5056 83.2582 39.0578 83.2582ZM39.0545 91.9913H63.2426C63.7949 91.9913 64.3245 91.7719 64.715 91.3814C65.1055 90.9909 65.3249 90.4613 65.3249 89.909C65.3249 89.3567 65.1055 88.8271 64.715 88.4366C64.3245 88.0461 63.7949 87.8267 63.2426 87.8267H39.0545C38.5022 87.8267 37.9726 88.0461 37.5821 88.4366C37.1916 88.8271 36.9722 89.3567 36.9722 89.909C36.9722 90.4613 37.1916 90.9909 37.5821 91.3814C37.9726 91.7719 38.5022 91.9913 39.0545 91.9913Z" fill="#06A7E0"/>
<path id="Vector_3" d="M36.9756 31.165C36.9758 31.7172 37.1953 32.2467 37.5857 32.6372C37.9762 33.0277 38.5057 33.2471 39.0579 33.2473H63.246C63.7983 33.2473 64.3279 33.0279 64.7184 32.6374C65.109 32.2469 65.3283 31.7173 65.3283 31.165C65.3283 30.6128 65.109 30.0831 64.7184 29.6926C64.3279 29.3021 63.7983 29.0827 63.246 29.0827H39.0579C38.5057 29.0829 37.9762 29.3024 37.5857 29.6928C37.1953 30.0833 36.9758 30.6128 36.9756 31.165Z" fill="#06A7E0"/>
<path id="Vector_4" d="M83.4187 101.402C83.4187 102.338 82.6561 103.101 81.7203 103.101C80.7845 103.101 80.022 102.338 80.022 101.402C80.022 100.466 80.7845 99.7039 81.7203 99.7039C82.6561 99.7039 83.4187 100.466 83.4187 101.402Z" fill="#06A7E0"/>
<g id="Group 1">
<path id="Vector_5" d="M0.149902 84.1041C0.151276 86.3164 1.03127 88.4376 2.59636 90.0012C4.16145 91.5648 6.28348 92.4427 8.49578 92.4419H22.1641V73.043H80.1357V92.4419H93.8123C94.9073 92.4421 95.9916 92.2266 97.0033 91.8077C98.015 91.3888 98.9342 90.7746 99.7085 90.0003C100.483 89.226 101.097 88.3068 101.516 87.2951C101.935 86.2834 102.15 85.1991 102.15 84.1041V59.3498H0.149902V84.1041ZM94.2621 66.038C94.9502 66.0372 95.6231 66.2405 96.1957 66.6223C96.7682 67.0041 97.2145 67.5471 97.4783 68.1827C97.742 68.8183 97.8113 69.5178 97.6772 70.1928C97.5432 70.8677 97.212 71.4878 96.7254 71.9744C96.2389 72.461 95.6189 72.7923 94.9439 72.9264C94.269 73.0605 93.5694 72.9913 92.9338 72.7276C92.2982 72.4639 91.7551 72.0176 91.3733 71.4451C90.9915 70.8727 90.7881 70.1998 90.7888 69.5117C90.7901 68.5908 91.1564 67.7081 91.8075 67.0569C92.4586 66.4058 93.3413 66.0394 94.2621 66.038ZM10.3948 66.038C11.0826 66.0388 11.7547 66.2436 12.3261 66.6263C12.8975 67.0091 13.3426 67.5527 13.6051 68.1885C13.8675 68.8242 13.9356 69.5235 13.8006 70.1979C13.6657 70.8723 13.3338 71.4915 12.8469 71.9773C12.36 72.4631 11.74 72.7936 11.0653 72.927C10.3906 73.0604 9.69145 72.9907 9.05632 72.7268C8.4212 72.4629 7.8786 72.0166 7.49713 71.4443C7.11566 70.872 6.91246 70.1994 6.91323 69.5117C6.91592 68.5898 7.28385 67.7066 7.93643 67.0556C8.58902 66.4045 9.47301 66.0386 10.3948 66.038ZM10.3948 76.6245C11.0835 76.6244 11.7567 76.8286 12.3293 77.2112C12.9018 77.5937 13.3481 78.1375 13.6117 78.7737C13.8752 79.4099 13.9442 80.11 13.8099 80.7854C13.6756 81.4608 13.344 82.0812 12.857 82.5682C12.3701 83.0551 11.7497 83.3867 11.0743 83.5211C10.3989 83.6555 9.69884 83.5865 9.06262 83.323C8.4264 83.0595 7.88261 82.6132 7.50002 82.0406C7.11744 81.468 6.91323 80.7949 6.91323 80.1062C6.91422 79.1831 7.28135 78.2981 7.93407 77.6454C8.58679 76.9927 9.47175 76.6255 10.3948 76.6245ZM93.804 42.941H71.0152V14.7094C71.0152 14.1853 70.8898 13.6688 70.6495 13.2031C70.4091 12.7374 70.0608 12.336 69.6335 12.0325L54.5949 1.34558C54.0606 0.966029 53.4216 0.762065 52.7662 0.761963H33.0325C32.8029 0.761968 32.5756 0.807188 32.3635 0.89504C32.1515 0.982891 31.9588 1.11165 31.7965 1.27398C31.6342 1.4363 31.5055 1.629 31.4176 1.84108C31.3298 2.05315 31.2846 2.28045 31.2846 2.51V42.941H8.49577C6.28231 42.9411 4.15952 43.8204 2.59437 45.3855C1.02922 46.9507 0.149925 49.0735 0.149902 51.2869V54.5353H102.15V51.2869C102.15 49.0735 101.271 46.9507 99.7054 45.3855C98.1403 43.8204 96.0175 42.9411 93.804 42.941ZM66.8505 42.941V47.9471H35.4493V4.9266H51.4414V14.6313C51.4414 14.8609 51.4866 15.0882 51.5744 15.3002C51.6622 15.5123 51.791 15.705 51.9533 15.8673C52.1156 16.0296 52.3082 16.1584 52.5203 16.2463C52.7324 16.3341 52.9597 16.3793 53.1892 16.3793H66.8505V42.941Z" fill="#06A7E0"/>
<path id="Vector_6" d="M18.7122 27.8649C18.7122 28.5206 18.1782 29.0549 17.523 29.0549C16.8677 29.0549 16.3337 28.5206 16.3337 27.8649C16.3337 27.2093 16.8677 26.675 17.523 26.675C18.1782 26.675 18.7122 27.2093 18.7122 27.8649Z" fill="#06A7E0"/>
<path id="Vector_7" d="M88.5137 11.8145C88.5137 12.9843 87.5605 13.9375 86.3908 13.9375C85.221 13.9375 84.2678 12.9843 84.2678 11.8145C84.2678 10.6448 85.221 9.69159 86.3908 9.69159C87.5605 9.69159 88.5137 10.6448 88.5137 11.8145Z" fill="#06A7E0"/>
</g>
</g>
</svg>
