<svg width="129" height="105" viewBox="0 0 129 105" fill="none" xmlns="http://www.w3.org/2000/svg">
<g id="laptop">
<g id="Group">
<g id="Group_2">
<path id="Vector" d="M21.2447 77.4353V100.82L0.51001 78.9214L21.2447 77.4353Z" fill="#2F9784"/>
</g>
</g>
<g id="Group_3">
<g id="Group_4">
<path id="Vector_2" d="M128.39 94.0446V94.0494L24.5874 104.342V77.1962L105.248 71.4193L128.39 94.0446Z" fill="#2F9784"/>
</g>
</g>
<g id="Group_5">
<g id="Group_6">
<g id="Group_7">
<path id="Vector_3" d="M127.779 13.6968L24.5874 20.5872V104.342L128.39 94.0493V94.0445L127.779 13.6968ZM80.297 41.9081C82.3982 41.9081 84.103 43.6188 84.103 45.7212C84.103 47.8237 82.3982 49.5295 80.297 49.5295C78.1958 49.5295 76.4863 47.8237 76.4863 45.7212C76.4863 43.6188 78.1958 41.9081 80.297 41.9081Z" fill="#2F9784"/>
</g>
</g>
</g>
<g id="Group_8">
<g id="Group_9">
<path id="Vector_4" d="M9.7457 45.7212C11.2596 45.7212 12.4868 44.4933 12.4868 42.9785C12.4868 41.4637 11.2596 40.2357 9.7457 40.2357C8.23185 40.2357 7.00464 41.4637 7.00464 42.9785C7.00464 44.4933 8.23185 45.7212 9.7457 45.7212Z" fill="#2F9784"/>
</g>
</g>
<g id="Group_10">
<g id="Group_11">
<path id="Vector_5" d="M46.2248 4.89045C47.3641 4.89045 48.2878 3.96622 48.2878 2.82618C48.2878 1.68613 47.3641 0.761963 46.2248 0.761963C45.0855 0.761963 44.1619 1.68613 44.1619 2.82618C44.1619 3.96622 45.0855 4.89045 46.2248 4.89045Z" fill="#2F9784"/>
</g>
</g>
</g>
</svg>
