<svg width="109" height="103" viewBox="0 0 109 103" fill="none" xmlns="http://www.w3.org/2000/svg">
<g id="pen icon">
<g id="Group">
<g id="Group_2">
<g id="Group_3">
<path id="Vector" d="M106.572 50.7552C104.823 44.7636 102.661 38.9523 99.6656 33.5558L99.1188 32.5414C98.9267 32.2033 98.7099 31.8877 98.508 31.5586L97.2962 29.593L95.9563 27.6995C95.7346 27.3839 95.5228 27.0638 95.2863 26.7572L94.5573 25.8556C92.6657 23.4075 90.4982 21.1579 88.1485 19.0885C87.5672 18.5701 86.9859 18.0381 86.3505 17.5692L85.4244 16.8388C85.114 16.5954 84.8086 16.352 84.4786 16.1265L82.5377 14.7605L80.5229 13.4801C77.7939 11.8301 74.9023 10.3919 71.8925 9.16113C68.8778 7.93486 65.7546 6.89344 62.5429 6.09997C60.9419 5.66717 59.3114 5.34257 57.6661 5.03149C57.1784 4.93682 56.6907 4.85566 56.203 4.77451C55.9912 4.73844 55.7794 4.71138 55.5676 4.67983C55.4395 4.66179 55.3114 4.64377 55.1834 4.62123C55.0996 4.6077 55.0159 4.59417 54.9321 4.58515V4.17489C55.1439 4.16588 55.3607 4.16588 55.5676 4.16588C55.7794 4.15686 55.9912 4.15686 56.203 4.16588C56.7301 4.17039 57.2523 4.1794 57.7744 4.20194C58.3951 4.22448 59.0158 4.26056 59.6365 4.31015C60.7153 4.3913 61.7941 4.51302 62.8729 4.65278C64.5675 4.87819 66.2473 5.21182 67.9221 5.57248C69.5871 5.96471 71.2373 6.41555 72.858 6.95655C76.1043 8.02503 79.2471 9.40458 82.2126 11.0637C85.1781 12.7182 87.9268 14.7019 90.4391 16.9065L91.38 17.7405C91.7002 18.011 91.976 18.3221 92.2716 18.6106C92.8529 19.2012 93.4588 19.7738 94.0154 20.3869L95.6312 22.2624C95.907 22.569 96.1533 22.8981 96.3947 23.2227L97.1336 24.2055L97.8676 25.1883C98.0991 25.5219 98.311 25.8691 98.5326 26.2117C98.971 26.8925 99.4095 27.5777 99.8331 28.2675L100.986 30.391C101.168 30.7471 101.37 31.0988 101.542 31.4594L102.035 32.555C104.661 38.3843 106.188 44.5607 106.572 50.7552Z" fill="#E60B7A"/>
</g>
</g>
<g id="Group_4">
<g id="Group_5">
<path id="Vector_2" d="M49.7105 4.19293V4.96386C49.5873 4.9864 49.4642 5.00895 49.341 5.03149C49.2523 5.04502 49.1637 5.06755 49.075 5.08108C48.8632 5.12165 48.6514 5.16223 48.4396 5.20731C47.1046 5.46429 45.7696 5.74832 44.4642 6.09997C41.2475 6.89344 38.1244 7.93486 35.1146 9.16113C32.0998 10.3874 29.2083 11.8256 26.4841 13.4801L24.4694 14.7605L22.5285 16.1265C22.2034 16.352 21.8931 16.5954 21.5827 16.8389L20.6566 17.5692C20.0212 18.0381 19.4448 18.5701 18.8586 19.0885C16.5089 21.1579 14.3414 23.4075 12.4498 25.8556L11.7208 26.7572C11.4843 27.0638 11.2725 27.3839 11.0508 27.6995L9.71092 29.593L8.49913 31.5586C8.29716 31.8877 8.07549 32.2078 7.8883 32.5415L7.34149 33.5558C4.34645 38.9523 2.18393 44.7636 0.435181 50.7552C0.819413 44.5607 2.34155 38.3843 4.97699 32.555L5.46959 31.4594C5.63708 31.0988 5.84397 30.7471 6.02624 30.391L7.17895 28.2675C7.60259 27.5778 8.04098 26.8925 8.4794 26.2117C8.70107 25.8691 8.91291 25.5219 9.14444 25.1883L9.87842 24.2055L10.6173 23.2227C10.8636 22.8981 11.105 22.569 11.3809 22.2624L12.9966 20.3869C13.5533 19.7738 14.1592 19.2012 14.7404 18.6106C15.036 18.3176 15.3168 18.0065 15.632 17.7405L16.5729 16.9065C19.0852 14.7019 21.8339 12.7182 24.7994 11.0637C27.7649 9.40458 30.9077 8.02503 34.154 6.95655C35.7747 6.42006 37.4249 5.96471 39.0899 5.57249C40.7648 5.21182 42.4396 4.8782 44.1391 4.65278C45.213 4.50851 46.2967 4.3913 47.3755 4.31015C47.7302 4.2831 48.0849 4.26056 48.4494 4.24253C48.6612 4.22901 48.8731 4.21999 49.0849 4.21097C49.1391 4.20646 49.1883 4.20645 49.2425 4.20194C49.3952 4.19744 49.5528 4.19293 49.7105 4.19293Z" fill="#E60B7A"/>
</g>
</g>
</g>
<g id="Group_6">
<g id="Group_7">
<g id="Group_8">
<path id="Vector_3" d="M76.0207 63.5724L65.7498 88.5487H37.3314L27.4005 62.8556L45.356 17.7315H50.7598V55.4213C48.3609 56.0525 46.6072 58.0677 46.6072 60.4662C46.6072 63.3695 49.1737 65.7184 52.346 65.7184C55.5086 65.7184 58.08 63.3695 58.08 60.4662C58.08 58.0677 56.3312 56.057 53.9322 55.4213V17.7315H59.5381L76.0207 63.5724Z" fill="#E60B7A"/>
</g>
</g>
<g id="Group_9">
<g id="Group_10">
<path id="Vector_4" d="M65.0848 93.2283H38.3806V102.335H65.0848V93.2283Z" fill="#E60B7A"/>
</g>
</g>
<g id="Group_11">
<g id="Group_12">
<g id="Group_13">
<g id="Group_14">
<path id="Vector_5" d="M5.69134 4.30553C5.69134 5.63099 4.51401 6.70848 3.06575 6.70848C1.61749 6.70848 0.440186 5.63099 0.440186 4.30553C0.440186 2.98008 1.61749 1.90259 3.06575 1.90259C4.51401 1.90259 5.69134 2.98008 5.69134 4.30553Z" fill="#E60B7A"/>
</g>
</g>
<g id="Group_15">
<g id="Group_16">
<path id="Vector_6" d="M108.065 4.30553C108.065 5.63099 106.887 6.70848 105.439 6.70848C103.991 6.70848 102.813 5.63099 102.813 4.30553C102.813 2.98008 103.991 1.90259 105.439 1.90259C106.887 1.90259 108.065 2.98008 108.065 4.30553Z" fill="#E60B7A"/>
</g>
</g>
</g>
<g id="Group_17">
<g id="Group_18">
<path id="Vector_7" d="M103.685 3.40393H54.9321V5.20727H103.685V3.40393Z" fill="#E60B7A"/>
</g>
</g>
<g id="Group_19">
<g id="Group_20">
<path id="Vector_8" d="M49.7155 3.40393H0.967285V5.20727H49.7155V3.40393Z" fill="#E60B7A"/>
</g>
</g>
<g id="Group_21">
<g id="Group_22">
<g id="Group_23">
<path id="Vector_9" d="M49.0798 1.34351V7.27198H55.5674V1.34351H49.0798ZM54.932 6.69042H49.7153V1.92057H54.932V6.69042Z" fill="#E60B7A"/>
</g>
</g>
<g id="Group_24">
<g id="Group_25">
<path id="Vector_10" d="M48.4445 0.761963V7.85359H56.1981V0.761963H48.4445ZM54.9321 6.69044H49.7154V1.9206H54.9321V6.69044Z" fill="#E60B7A"/>
</g>
</g>
</g>
</g>
</g>
<g id="Group_26">
<g id="Group_27">
<path id="Vector_11" d="M78.767 19.6791C78.767 20.2877 78.2252 20.7836 77.5602 20.7836C76.8951 20.7836 76.3533 20.2877 76.3533 19.6791C76.3533 19.0704 76.8951 18.5745 77.5602 18.5745C78.2252 18.5745 78.767 19.0704 78.767 19.6791Z" fill="#E60B7A"/>
</g>
</g>
<path id="Vector_12" d="M25.1663 36.7668C25.1663 37.3754 24.6245 37.8713 23.9595 37.8713C23.2944 37.8713 22.7526 37.3754 22.7526 36.7668C22.7526 36.1582 23.2944 35.6622 23.9595 35.6622C24.6245 35.6622 25.1663 36.1582 25.1663 36.7668Z" fill="#E60B7A"/>
</g>
</svg>
