<svg width="132" height="136" viewBox="0 0 132 136" fill="none" xmlns="http://www.w3.org/2000/svg">
<g clip-path="url(#clip0_90_720)">
<path d="M2.73438 22.9378C2.85595 22.8709 2.85595 22.7594 2.867 22.6367C2.95995 21.97 3.19362 21.3311 3.55223 20.7633C3.91601 20.1635 4.40695 19.6524 4.98979 19.2668C5.57262 18.8812 6.23287 18.6306 6.9231 18.5331C7.14383 18.5163 7.3655 18.5163 7.58623 18.5331C9.67507 18.5331 11.7529 18.5331 13.8306 18.5331C15.0984 18.5562 16.3073 19.0769 17.2008 19.9846C18.0943 20.8924 18.602 22.1157 18.6162 23.395V105.356C18.6339 105.928 18.5669 106.499 18.4172 107.051C18.1447 107.919 17.6369 108.692 16.9513 109.283C16.2657 109.874 15.4297 110.26 14.538 110.397C14.2951 110.413 14.0514 110.413 13.8085 110.397C11.7418 110.397 9.68612 110.397 7.63043 110.397C6.51836 110.389 5.44274 109.996 4.58363 109.283C3.72453 108.571 3.13411 107.582 2.91121 106.483C2.91121 106.371 2.91121 106.26 2.85595 106.137C2.83501 106.06 2.79286 105.99 2.73438 105.936V22.9378Z" fill="white"/>
<path d="M11.3108 0C11.4067 0.0597075 11.519 0.087048 11.6314 0.0780584C13.6833 0.307286 15.5623 1.3454 16.859 2.96622C17.7102 3.99594 18.2646 5.24194 18.4615 6.56805C18.7784 8.49657 18.3254 10.4732 17.2016 12.0656C16.1314 13.6488 14.5097 14.7674 12.6592 15.1991C11.4778 15.5157 10.2389 15.5453 9.04401 15.2856C7.8491 15.0258 6.7322 14.4841 5.78481 13.7048C4.4116 12.6573 3.45194 11.1515 3.07706 9.45621C2.80281 8.34242 2.79091 7.1793 3.04233 6.06004C3.29375 4.94077 3.80149 3.89648 4.52488 3.01082C5.64988 1.5607 7.25431 0.567242 9.04517 0.211873C9.32147 0.144966 9.60883 0.111512 9.89618 0.0669072C9.97129 0.0497434 10.0451 0.0273883 10.1172 0L11.3108 0Z" fill="white"/>
<path d="M48.2357 20.2282H68.3063C68.5841 20.2228 68.8617 20.2452 69.1352 20.2951C69.6818 20.4128 70.1794 20.6969 70.5609 21.1091C71.1033 21.6819 71.4848 22.3901 71.6661 23.161C71.9024 23.9407 71.9694 24.7626 71.8626 25.5708C71.7558 26.379 71.4777 27.1545 71.0472 27.8445L69.6436 30.242C69.4495 30.574 69.2115 30.8779 68.9362 31.1452C68.5191 31.5692 67.9827 31.8534 67.4 31.9593C67.2897 31.9702 67.1787 31.9702 67.0684 31.9593H28.0989C27.8892 31.9759 27.6786 31.9759 27.4689 31.9593C26.8715 31.8613 26.3213 31.572 25.8995 31.1341C25.4708 30.7094 25.1323 30.2009 24.9048 29.6398C24.6388 28.9962 24.4963 28.3075 24.4849 27.6103C24.4849 26.6178 24.4849 25.6142 24.4849 24.6218C24.493 23.6557 24.7644 22.7105 25.2696 21.8897C25.5125 21.4566 25.8395 21.0773 26.2311 20.7746C26.709 20.3999 27.2948 20.1924 27.8999 20.1836H48.2357V20.2282Z" fill="white"/>
<path d="M39.0404 59.6256H50.0151C50.302 59.6198 50.5883 59.6536 50.8661 59.726C51.3749 59.8623 51.8373 60.1361 52.2034 60.5177C52.6455 60.9573 52.9853 61.4906 53.1981 62.0789C53.4942 62.8176 53.6352 63.6103 53.6124 64.4068C53.5896 65.2033 53.4033 65.9864 53.0655 66.7066C52.999 66.8537 52.9214 66.9954 52.8334 67.1304C52.325 67.989 51.8055 68.8365 51.2861 69.6952C51.0918 70.014 50.8578 70.3063 50.5898 70.565C50.036 71.1142 49.2886 71.4191 48.512 71.4125C41.6745 71.4125 34.8406 71.4125 28.0105 71.4125C27.2547 71.4229 26.5249 71.1347 25.9769 70.6096C25.4756 70.1363 25.0962 69.5469 24.8717 68.8923C24.6352 68.2963 24.5115 67.6608 24.507 67.0189C24.507 66.0153 24.507 65.0005 24.507 63.9969C24.5184 63.1131 24.7502 62.2464 25.1811 61.4767C25.3678 61.1264 25.6063 60.8067 25.8885 60.5289C26.1691 60.24 26.5046 60.0111 26.8749 59.8559C27.2452 59.7007 27.6427 59.6224 28.0436 59.6256H39.0404Z" fill="white"/>
<path d="M29.7015 99.0337C30.3867 99.0337 31.072 99.0337 31.7572 99.0337C32.3542 99.0632 32.9322 99.2551 33.43 99.5888C33.9278 99.9226 34.3269 100.386 34.5851 100.93C34.8433 101.474 34.951 102.078 34.8968 102.679C34.8426 103.279 34.6284 103.854 34.2771 104.342L32.0666 107.252L30.4641 109.36C30.0063 109.98 29.3439 110.415 28.5963 110.586C28.0109 110.739 27.3957 110.733 26.8134 110.569C26.231 110.404 25.7022 110.087 25.2807 109.65C24.7157 109.09 24.3904 108.33 24.3744 107.531V102.491C24.3596 102.144 24.4007 101.798 24.496 101.465C24.6614 100.881 24.9813 100.353 25.4213 99.9386C25.8613 99.524 26.4049 99.2382 26.9937 99.1118C27.2621 99.0517 27.5368 99.0254 27.8116 99.0337H29.7015Z" fill="white"/>
<path d="M67.1127 98.2977C66.9967 98.5911 66.9187 98.8985 66.8806 99.2121C66.8143 99.502 66.759 99.7919 66.6927 100.093C66.6264 100.394 66.5711 100.695 66.5159 100.996C66.4606 101.297 66.3943 101.576 66.339 101.866C66.2838 102.156 66.2064 102.468 66.1512 102.769C66.0959 103.07 66.0296 103.36 65.9633 103.65C65.897 103.94 65.8528 104.252 65.7864 104.553C65.7201 104.855 65.6649 105.156 65.5986 105.457C65.5322 105.758 65.477 106.037 65.4217 106.338C65.3665 106.639 65.3002 106.94 65.2338 107.241C65.1675 107.542 65.1233 107.821 65.057 108.111C64.9907 108.401 64.9354 108.713 64.8691 109.014C64.8028 109.315 64.7476 109.605 64.6923 109.895C64.637 110.185 64.5818 110.497 64.4934 110.798C64.1585 110.82 63.8225 110.82 63.4876 110.798C63.1561 110.798 62.8245 110.798 62.4929 110.798H60.5257C60.1941 110.798 59.8625 110.798 59.5531 110.798C59.5287 110.748 59.516 110.693 59.516 110.636C59.516 110.58 59.5287 110.525 59.5531 110.475C59.8183 109.181 60.0836 107.877 60.3599 106.583L61.7856 99.6358C62.3382 96.993 62.8908 94.3613 63.4213 91.7185L64.847 84.8047C65.3665 82.2622 65.9522 79.7309 66.4164 77.1884C66.8806 74.8578 67.3227 72.5161 67.7869 70.1855C67.7869 70.074 67.7869 69.9736 67.8642 69.851H68.1295C69.7873 69.851 72.4066 69.851 72.7271 69.851C72.7604 69.9789 72.7604 70.1133 72.7271 70.2413C72.7271 70.5758 72.6277 70.9215 72.5724 71.256L72.4066 72.137V72.4046C72.5282 72.4046 72.5393 72.3042 72.5835 72.2485C72.8266 71.9362 73.0476 71.6017 73.3129 71.3118C74.0786 70.4779 75.0569 69.8725 76.1406 69.5618C77.2244 69.2511 78.3719 69.247 79.4578 69.5499C80.4103 69.8627 81.2036 70.5391 81.6682 71.4344C82.0329 72.1281 82.2653 72.8846 82.3535 73.6647C82.4805 74.7351 82.4805 75.817 82.3535 76.8874C82.2286 78.0301 82.0442 79.1654 81.8009 80.2885C81.3698 82.3961 80.9388 84.4925 80.4967 86.6001C80.1431 88.295 79.8004 89.9454 79.3915 91.6962C79.0996 93.035 78.7004 94.3477 78.1979 95.6214C77.9259 96.3097 77.5968 96.9737 77.2143 97.6063C76.815 98.2781 76.3197 98.8869 75.7443 99.4128C74.8611 100.211 73.7591 100.72 72.5835 100.874C71.8505 100.98 71.1061 100.98 70.373 100.874C69.9939 100.819 69.6228 100.718 69.2678 100.573C68.3882 100.21 67.6774 99.5246 67.2785 98.6545L67.1127 98.2977ZM68.3726 93.2573C68.3726 93.5249 68.3726 93.7814 68.3726 94.0491C68.4003 94.4328 68.4899 94.8095 68.6379 95.1642C68.7307 95.4199 68.8776 95.6522 69.0685 95.8448C69.2594 96.0374 69.4896 96.1857 69.7431 96.2793C70.2437 96.4387 70.7765 96.4656 71.2904 96.3574C71.9601 96.2316 72.5569 95.8527 72.9592 95.298C73.2413 94.9301 73.4788 94.5296 73.6666 94.1048C73.9448 93.469 74.1631 92.8081 74.3186 92.1311C74.5728 91.0159 74.816 89.8451 75.0481 88.7076C75.5565 86.299 76.0538 83.8829 76.5401 81.4594C76.7832 80.3442 77.0485 79.2291 77.2143 78.0248C77.3193 77.3238 77.3526 76.6139 77.3137 75.9061C77.2856 75.5415 77.1998 75.1839 77.0595 74.8467C76.9523 74.5844 76.782 74.3532 76.5639 74.1741C76.3459 73.995 76.087 73.8735 75.8107 73.8208C75.3469 73.7162 74.8646 73.7297 74.4073 73.8601C73.9501 73.9905 73.5321 74.2338 73.1913 74.5679C72.8898 74.8419 72.6325 75.1617 72.4287 75.5158C72.1443 75.9967 71.9074 76.5047 71.7214 77.0323C71.3554 78.0646 71.0673 79.1232 70.8593 80.1993C70.4504 82.1061 70.0636 84.0241 69.6768 85.931C69.3452 87.5702 69.0136 89.1983 68.6931 90.8375C68.5148 91.6328 68.4075 92.4427 68.3726 93.2573Z" fill="white"/>
<path d="M108.912 97.8628C108.74 98.7399 108.522 99.6072 108.259 100.461C108.171 100.466 108.083 100.466 107.994 100.461H103.673H103.43C103.423 100.364 103.423 100.268 103.43 100.171C103.817 98.2196 104.203 96.2793 104.601 94.3278C104.999 92.3764 105.419 90.3246 105.828 88.3173C106.237 86.3101 106.701 84.091 107.132 81.9835C107.707 79.2328 108.274 76.4785 108.834 73.7204L110.326 66.4721L111.686 59.7814L111.851 59.012C111.848 58.9563 111.848 58.9004 111.851 58.8447H112.083H116.504H116.792C116.792 59.2239 116.648 59.5807 116.582 59.9598C116.515 60.339 116.438 60.6735 116.361 61.075C116.283 61.4764 116.206 61.7886 116.14 62.1901C116.073 62.5915 115.985 62.9038 115.919 63.3052L115.686 64.4203C115.609 64.7772 115.532 65.134 115.465 65.5354C115.399 65.9369 115.322 66.2268 115.244 66.5725C115.167 66.9182 115.101 67.2862 115.023 67.6876C114.946 68.0891 114.869 68.4013 114.802 68.8027C114.736 69.2042 114.648 69.5164 114.581 69.9179C114.515 70.3193 114.415 70.6315 114.349 71.033C114.283 71.4344 114.183 71.7355 114.139 72.1481L114.316 72.0031C114.526 71.7801 114.736 71.5348 114.968 71.3229C116.061 70.2587 117.527 69.6735 119.046 69.6948C119.657 69.6759 120.268 69.7472 120.859 69.9067C121.398 70.063 121.898 70.3312 122.328 70.6941C122.759 71.0571 123.109 71.5068 123.357 72.0143C123.658 72.6322 123.859 73.2948 123.953 73.9769C124.1 75.0871 124.1 76.212 123.953 77.3223C123.821 78.6046 123.544 79.8536 123.29 81.1025L121.931 87.7152C121.599 89.2986 121.279 90.8933 120.925 92.4767C120.683 93.6448 120.343 94.7901 119.908 95.9002C119.605 96.6035 119.235 97.2757 118.803 97.9074C118.408 98.5168 117.924 99.062 117.366 99.5243C116.443 100.277 115.321 100.739 114.139 100.851C113.599 100.907 113.055 100.907 112.514 100.851C112.095 100.801 111.683 100.7 111.288 100.55C110.783 100.36 110.324 100.062 109.943 99.6772C109.561 99.2925 109.266 98.8296 109.077 98.32C109.022 98.1861 108.989 98.0523 108.934 97.9297C108.927 97.9071 108.92 97.8848 108.912 97.8628ZM119.168 76.4636C119.168 76.2406 119.168 76.0064 119.168 75.7834C119.139 75.5338 119.087 75.2875 119.013 75.0474C118.929 74.7453 118.765 74.4718 118.54 74.2558C118.314 74.0399 118.035 73.8895 117.731 73.8208C117.506 73.7648 117.277 73.7312 117.046 73.7204C116.601 73.6893 116.154 73.757 115.738 73.9189C115.322 74.0807 114.946 74.3327 114.636 74.6571C114.407 74.8919 114.206 75.154 114.04 75.4377C113.825 75.79 113.647 76.1637 113.509 76.5528C113.19 77.3454 112.945 78.1669 112.78 79.0061C112.437 80.6342 112.106 82.2734 111.774 83.9015L110.415 90.6591C110.251 91.4165 110.137 92.1838 110.072 92.9562C110.022 93.412 110.022 93.872 110.072 94.3278C110.115 94.6237 110.196 94.9125 110.315 95.1865C110.422 95.4527 110.586 95.6912 110.797 95.8843C111.007 96.0774 111.258 96.22 111.531 96.3016C111.929 96.4195 112.345 96.4611 112.758 96.4243C113.119 96.3944 113.47 96.2899 113.789 96.1173C114.109 95.9446 114.39 95.7075 114.614 95.4207C114.867 95.1133 115.082 94.7763 115.255 94.417C115.464 93.9771 115.642 93.5224 115.786 93.0566C116.056 92.1814 116.278 91.2916 116.449 90.3915C117.23 86.6001 118.018 82.8124 118.814 79.0284C119.008 78.186 119.127 77.3276 119.168 76.4636Z" fill="white"/>
<path d="M88.6862 69.8623H88.841H93.5602H93.6597C93.687 69.9608 93.687 70.0649 93.6597 70.1634C93.2286 72.2152 92.8086 74.2782 92.3776 76.33L90.9519 83.2437C90.4546 85.6524 89.9462 88.0499 89.4599 90.4586C89.2941 91.2615 89.1394 92.0755 88.9957 92.8784C88.9132 93.3306 88.8798 93.7905 88.8962 94.25C88.9151 94.5352 88.9558 94.8185 89.0178 95.0975C89.0863 95.4339 89.2613 95.7387 89.5164 95.966C89.7716 96.1933 90.0931 96.3307 90.4324 96.3576C90.9665 96.4491 91.5152 96.3938 92.0208 96.1976C92.5264 96.0014 92.9703 95.6715 93.306 95.2424C93.6459 94.8152 93.9317 94.347 94.157 93.8485C94.5565 92.9534 94.8638 92.0192 95.0743 91.0607C95.3396 89.9456 95.5717 88.7413 95.8037 87.5816C96.3121 85.1283 96.8132 82.675 97.3068 80.2218L98.7325 73.2411C98.9425 72.2375 99.1415 71.2228 99.3515 70.2191C99.3515 70.1076 99.3515 70.0073 99.4399 69.8846H99.5725H104.347C104.395 69.8763 104.443 69.8763 104.491 69.8846V70.1188L103.385 75.2483L102.103 81.5153L100.81 87.7934C100.11 91.1834 99.4178 94.5734 98.7325 97.9633C98.5778 98.7327 98.4562 99.5133 98.3236 100.294C98.3236 100.294 98.3236 100.383 98.3236 100.45H98.1026H93.7812C93.6461 100.476 93.5074 100.476 93.3723 100.45C93.4014 100.02 93.453 99.5921 93.527 99.1676C93.527 98.7551 93.6707 98.3425 93.726 97.9076C93.5823 97.9076 93.5491 98.0637 93.4939 98.1417C93.1889 98.5886 92.8489 99.01 92.4771 99.4018C91.6953 100.224 90.6577 100.752 89.5372 100.896C88.9306 100.952 88.3203 100.952 87.7136 100.896C87.1472 100.866 86.5919 100.726 86.0779 100.483C85.2815 100.096 84.6471 99.4362 84.2875 98.6212C83.9767 97.9169 83.7969 97.1609 83.757 96.391C83.6848 95.2334 83.7628 94.0713 83.9891 92.9341C84.2654 91.5179 84.5638 90.0906 84.8512 88.6744L86.2216 81.7606L87.581 75.0699C87.9236 73.3972 88.2773 71.7246 88.6199 70.063C88.6385 69.995 88.6606 69.928 88.6862 69.8623Z" fill="white"/>
<path d="M129.921 119.719H1.10978C0.505494 119.719 0.015625 120.213 0.015625 120.823V134.896C0.015625 135.506 0.505494 136 1.10978 136H129.921C130.526 136 131.016 135.506 131.016 134.896V120.823C131.016 120.213 130.526 119.719 129.921 119.719Z" fill="white"/>
<path d="M5.63601 131.099H4.60134L7.59391 122.949H8.61266L11.6052 131.099H10.5706L8.13512 124.238H8.07145L5.63601 131.099ZM6.01804 127.915H10.1885V128.791H6.01804V127.915ZM18.0629 125.496C17.9754 125.228 17.86 124.987 17.7167 124.775C17.5761 124.56 17.4077 124.377 17.2113 124.226C17.0177 124.075 16.7975 123.959 16.5507 123.88C16.304 123.8 16.0334 123.76 15.7389 123.76C15.2561 123.76 14.817 123.885 14.4217 124.135C14.0264 124.384 13.712 124.751 13.4786 125.237C13.2451 125.722 13.1284 126.318 13.1284 127.024C13.1284 127.729 13.2464 128.325 13.4826 128.81C13.7187 129.296 14.0384 129.663 14.4416 129.913C14.8449 130.162 15.2985 130.287 15.8026 130.287C16.2695 130.287 16.6807 130.187 17.0362 129.988C17.3944 129.787 17.673 129.503 17.8719 129.137C18.0736 128.768 18.1744 128.334 18.1744 127.835L18.4768 127.899H16.0254V127.024H19.1294V127.899C19.1294 128.57 18.9862 129.154 18.6997 129.65C18.4158 130.146 18.0231 130.531 17.5217 130.804C17.023 131.075 16.4499 131.21 15.8026 131.21C15.081 131.21 14.4469 131.04 13.9004 130.701C13.3565 130.361 12.9321 129.878 12.627 129.252C12.3245 128.626 12.1733 127.883 12.1733 127.024C12.1733 126.379 12.2595 125.799 12.432 125.285C12.6071 124.767 12.8538 124.327 13.1722 123.963C13.4905 123.6 13.8672 123.321 14.3023 123.128C14.7374 122.934 15.2163 122.837 15.7389 122.837C16.1687 122.837 16.5693 122.902 16.9407 123.032C17.3148 123.16 17.6478 123.341 17.9396 123.577C18.2341 123.811 18.4795 124.091 18.6758 124.417C18.8721 124.741 19.0074 125.1 19.0817 125.496H18.0629ZM20.8197 131.099V122.949H25.7384V123.824H21.8066V126.578H25.4837V127.453H21.8066V130.223H25.802V131.099H20.8197ZM33.9799 122.949V131.099H33.0248L28.5837 124.7H28.5041V131.099H27.5172V122.949H28.4723L32.9293 129.364H33.0089V122.949H33.9799ZM42.5129 125.496H41.526C41.4676 125.212 41.3655 124.962 41.2196 124.747C41.0763 124.532 40.9012 124.352 40.6943 124.206C40.49 124.058 40.2632 123.946 40.0138 123.872C39.7644 123.798 39.5044 123.76 39.2338 123.76C38.7403 123.76 38.2933 123.885 37.8927 124.135C37.4948 124.384 37.1777 124.751 36.9416 125.237C36.7082 125.722 36.5914 126.318 36.5914 127.024C36.5914 127.729 36.7082 128.325 36.9416 128.81C37.1777 129.296 37.4948 129.663 37.8927 129.913C38.2933 130.162 38.7403 130.287 39.2338 130.287C39.5044 130.287 39.7644 130.25 40.0138 130.175C40.2632 130.101 40.49 129.991 40.6943 129.845C40.9012 129.697 41.0763 129.515 41.2196 129.3C41.3655 129.082 41.4676 128.833 41.526 128.552H42.5129C42.4386 128.968 42.3033 129.341 42.107 129.67C41.9107 129.999 41.6666 130.279 41.3748 130.51C41.0829 130.738 40.7553 130.912 40.3918 131.031C40.031 131.15 39.645 131.21 39.2338 131.21C38.5387 131.21 37.9206 131.04 37.3794 130.701C36.8382 130.361 36.4123 129.878 36.1019 129.252C35.7915 128.626 35.6363 127.883 35.6363 127.024C35.6363 126.164 35.7915 125.421 36.1019 124.795C36.4123 124.169 36.8382 123.686 37.3794 123.347C37.9206 123.007 38.5387 122.837 39.2338 122.837C39.645 122.837 40.031 122.897 40.3918 123.016C40.7553 123.136 41.0829 123.311 41.3748 123.542C41.6666 123.77 41.9107 124.048 42.107 124.377C42.3033 124.704 42.4386 125.076 42.5129 125.496ZM44.1077 131.099V122.949H49.0263V123.824H45.0946V126.578H48.7716V127.453H45.0946V130.223H49.09V131.099H44.1077ZM56.4719 131.099H53.9569V122.949H56.5834C57.3739 122.949 58.0505 123.112 58.6129 123.438C59.1753 123.762 59.6064 124.227 59.9062 124.835C60.206 125.44 60.3559 126.164 60.3559 127.008C60.3559 127.857 60.2047 128.588 59.9022 129.2C59.5998 129.811 59.1594 130.28 58.5811 130.609C58.0027 130.935 57.2997 131.099 56.4719 131.099ZM54.9438 130.223H56.4083C57.0821 130.223 57.6406 130.093 58.0836 129.833C58.5267 129.573 58.857 129.203 59.0745 128.723C59.2921 128.243 59.4008 127.671 59.4008 127.008C59.4008 126.35 59.2934 125.783 59.0785 125.308C58.8636 124.831 58.5426 124.465 58.1155 124.21C57.6883 123.953 57.1564 123.824 56.5197 123.824H54.9438V130.223ZM62.0114 131.099V122.949H66.93V123.824H62.9983V126.578H66.6753V127.453H62.9983V130.223H66.9937V131.099H62.0114ZM71.8606 131.099V122.949H74.6144C75.2538 122.949 75.7764 123.064 76.1823 123.295C76.5909 123.523 76.8933 123.832 77.0896 124.222C77.286 124.612 77.3841 125.047 77.3841 125.527C77.3841 126.008 77.286 126.444 77.0896 126.837C76.896 127.229 76.5962 127.542 76.1903 127.776C75.7844 128.007 75.2644 128.122 74.6303 128.122H72.6565V127.246H74.5985C75.0362 127.246 75.3877 127.171 75.653 127.02C75.9183 126.868 76.1107 126.664 76.2301 126.407C76.3521 126.147 76.4131 125.854 76.4131 125.527C76.4131 125.201 76.3521 124.909 76.2301 124.652C76.1107 124.395 75.917 124.193 75.6491 124.047C75.3811 123.898 75.0256 123.824 74.5826 123.824H72.8475V131.099H71.8606ZM84.3224 122.949H85.3093V128.345C85.3093 128.902 85.1779 129.399 84.9153 129.837C84.6553 130.272 84.2879 130.616 83.813 130.868C83.3381 131.117 82.781 131.242 82.1416 131.242C81.5022 131.242 80.9451 131.117 80.4702 130.868C79.9953 130.616 79.6266 130.272 79.3639 129.837C79.1039 129.399 78.9739 128.902 78.9739 128.345V122.949H79.9608V128.265C79.9608 128.663 80.0484 129.017 80.2235 129.328C80.3986 129.636 80.648 129.878 80.9716 130.056C81.2979 130.231 81.6879 130.319 82.1416 130.319C82.5953 130.319 82.9852 130.231 83.3116 130.056C83.6379 129.878 83.8873 129.636 84.0597 129.328C84.2348 129.017 84.3224 128.663 84.3224 128.265V122.949ZM87.2801 131.099V122.949H90.1294C90.6972 122.949 91.1654 123.047 91.5342 123.243C91.9029 123.437 92.1775 123.698 92.3579 124.027C92.5383 124.353 92.6285 124.716 92.6285 125.113C92.6285 125.464 92.5662 125.753 92.4415 125.981C92.3195 126.209 92.1576 126.39 91.956 126.522C91.757 126.655 91.5408 126.753 91.3073 126.817V126.896C91.5567 126.912 91.8074 127 92.0595 127.159C92.3115 127.318 92.5224 127.546 92.6922 127.843C92.862 128.141 92.9469 128.504 92.9469 128.934C92.9469 129.342 92.854 129.71 92.6683 130.036C92.4826 130.362 92.1895 130.621 91.7889 130.812C91.3883 131.003 90.867 131.099 90.2249 131.099H87.2801ZM88.267 130.223H90.2249C90.8696 130.223 91.3272 130.098 91.5979 129.849C91.8711 129.597 92.0077 129.292 92.0077 128.934C92.0077 128.658 91.9374 128.403 91.7968 128.17C91.6562 127.934 91.4559 127.745 91.1959 127.605C90.9359 127.461 90.6282 127.39 90.2727 127.39H88.267V130.223ZM88.267 126.53H90.0976C90.3947 126.53 90.6627 126.472 90.9014 126.355C91.1429 126.238 91.3339 126.074 91.4745 125.862C91.6177 125.649 91.6894 125.4 91.6894 125.113C91.6894 124.755 91.5647 124.452 91.3153 124.202C91.0659 123.95 90.6706 123.824 90.1294 123.824H88.267V126.53ZM94.5685 131.099V122.949H95.5554V130.223H99.3439V131.099H94.5685ZM101.859 122.949V131.099H100.872V122.949H101.859ZM110.396 125.496H109.409C109.351 125.212 109.249 124.962 109.103 124.747C108.959 124.532 108.784 124.352 108.577 124.206C108.373 124.058 108.146 123.946 107.897 123.872C107.647 123.798 107.387 123.76 107.117 123.76C106.623 123.76 106.176 123.885 105.776 124.135C105.378 124.384 105.061 124.751 104.825 125.237C104.591 125.722 104.474 126.318 104.474 127.024C104.474 127.729 104.591 128.325 104.825 128.81C105.061 129.296 105.378 129.663 105.776 129.913C106.176 130.162 106.623 130.287 107.117 130.287C107.387 130.287 107.647 130.25 107.897 130.175C108.146 130.101 108.373 129.991 108.577 129.845C108.784 129.697 108.959 129.515 109.103 129.3C109.249 129.082 109.351 128.833 109.409 128.552H110.396C110.322 128.968 110.186 129.341 109.99 129.67C109.794 129.999 109.55 130.279 109.258 130.51C108.966 130.738 108.638 130.912 108.275 131.031C107.914 131.15 107.528 131.21 107.117 131.21C106.422 131.21 105.804 131.04 105.262 130.701C104.721 130.361 104.295 129.878 103.985 129.252C103.675 128.626 103.519 127.883 103.519 127.024C103.519 126.164 103.675 125.421 103.985 124.795C104.295 124.169 104.721 123.686 105.262 123.347C105.804 123.007 106.422 122.837 107.117 122.837C107.528 122.837 107.914 122.897 108.275 123.016C108.638 123.136 108.966 123.311 109.258 123.542C109.55 123.77 109.794 124.048 109.99 124.377C110.186 124.704 110.322 125.076 110.396 125.496ZM112.978 122.949V131.099H111.991V122.949H112.978ZM114.511 123.824V122.949H120.623V123.824H118.06V131.099H117.074V123.824H114.511ZM122.146 131.099V122.949H127.065V123.824H123.133V126.578H126.81V127.453H123.133V130.223H127.129V131.099H122.146ZM124.168 122.121L125.139 120.274H126.237L124.996 122.121H124.168Z" fill="#45556A"/>
</g>
<defs>
<clipPath id="clip0_90_720">
<rect width="131" height="136" fill="white" transform="translate(0.015625)"/>
</clipPath>
</defs>
</svg>
