<svg width="1511" height="226" viewBox="0 0 1511 226" fill="none" xmlns="http://www.w3.org/2000/svg">
<path d="M0 8.20012L19.4122 12.2082C38.7194 16.5189 77.6486 24.0814 116.473 36.4082C154.982 48.2814 194.122 64.9189 232.946 60.6082C271.245 56.6001 309.545 32.4001 348.369 52.592C387.404 72.4814 426.018 137.519 464.842 153.4C503.667 169.281 542.491 137.519 581.315 117.1C619.93 96.6814 658.964 89.1189 697.788 92.9001C736.088 96.6814 774.388 113.319 813.212 105C852.351 96.6814 890.86 64.9189 929.685 40.492C968.614 16.5189 1007.33 -0.118626 1046.16 0.108249C1084.77 -0.118626 1123.81 16.5189 1162.63 40.492C1201.04 64.9189 1240.28 96.6814 1278.05 121.108C1317.3 145.081 1355.7 161.719 1394.53 165.5C1433.56 169.281 1472.18 161.719 1492.11 157.408L1511 153.4V226H1491.59C1472.28 226 1433.35 226 1394.53 226C1356.02 226 1316.88 226 1278.05 226C1239.75 226 1201.45 226 1162.63 226C1123.6 226 1084.98 226 1046.16 226C1007.33 226 968.509 226 929.685 226C891.07 226 852.036 226 813.212 226C774.912 226 736.612 226 697.788 226C658.649 226 620.14 226 581.315 226C542.386 226 503.667 226 464.842 226C426.228 226 387.194 226 348.369 226C309.965 226 270.721 226 232.946 226C193.702 226 155.297 226 116.473 226C77.4388 226 38.8243 226 18.8875 226H0V8.20012Z" fill="#1D63AD"/>
</svg>
